# xmcd
# 
# Track frame offsets:
#     150
#     11736
#     25337
#     37005
#     54246
#     67323
#     83196
#     93855
#     104730
#     118356
#     135390
#     148902
#     162990
#     178176
#     189371
#     202662
#     214860
# 
# Disc length: 3101
# 
# Revision: 4
# Processed by: cddbd v1.5.2PL0 Copyright (c) Steve Scherf et al.
# Submitted via: fre:ac v1.0.31
# 
DISCID=fa0c1b11
DTITLE=Dick Brave and the Backbeats - Rock´n´Roll Therapy
DYEAR=2011
DGENRE=Rockabilly
TTITLE0=Rock Therapy
TTITLE1=Just Cann´t Get Enough
TTITLE2=Tonight ( I Ain´t Rock)
TTITLE3=Just The Way You  Are
TTITLE4=It´s Up To You
TTITLE5=Rolling In The Deep
TTITLE6=Come On
TTITLE7=Lover Doll
TTITLE8=American Idiot
TTITLE9=Look At You
TTITLE10=Sitting, Waiting, Wishing
TTITLE11=No One Knows
TTITLE12=I´ll Be Satisfied
TTITLE13=Who Will The Next Fool Be
TTITLE14=Else Somebody
TTITLE15=This Girl Is Trouble
TTITLE16=Always On My Mind
EXTD=Power Pedy 2o11 YEAR: 2011
EXTT0=
EXTT1=
EXTT2=
EXTT3=
EXTT4=
EXTT5=
EXTT6=
EXTT7=
EXTT8=
EXTT9=
EXTT10=
EXTT11=
EXTT12=
EXTT13=
EXTT14=
EXTT15=
EXTT16=
PLAYORDER=
